<svg width="32" height="32" viewBox="0 0 32 32" fill="none" xmlns="http://www.w3.org/2000/svg">
  <!-- Background circle -->
  <circle cx="16" cy="16" r="15" fill="#16a34a" stroke="#15803d" stroke-width="2"/>
  
  <!-- Farm house -->
  <path d="M8 20 L16 12 L24 20 L24 26 L8 26 Z" fill="#fbbf24" stroke="#d97706" stroke-width="1"/>
  <rect x="14" y="22" width="4" height="4" fill="#92400e"/>
  
  <!-- IoT sensor dots -->
  <circle cx="12" cy="8" r="2" fill="#3b82f6"/>
  <circle cx="20" cy="8" r="2" fill="#3b82f6"/>
  <circle cx="16" cy="6" r="2" fill="#3b82f6"/>
  
  <!-- Connection lines -->
  <line x1="12" y1="10" x2="16" y2="8" stroke="#3b82f6" stroke-width="1"/>
  <line x1="20" y1="10" x2="16" y2="8" stroke="#3b82f6" stroke-width="1"/>
  
  <!-- Plant/leaf symbol -->
  <path d="M6 28 Q8 26 10 28 Q12 30 14 28 Q16 26 18 28 Q20 30 22 28 Q24 26 26 28" 
        stroke="#22c55e" stroke-width="2" fill="none" stroke-linecap="round"/>
  
  <!-- Data flow arrows -->
  <path d="M26 12 L28 12 L28 10 L30 12 L28 14 L28 12" fill="#3b82f6"/>
  <path d="M6 12 L4 12 L4 10 L2 12 L4 14 L4 12" fill="#3b82f6"/>
</svg>
